<svg width="20" height="39" viewBox="0 0 20 39" fill="none" xmlns="http://www.w3.org/2000/svg">
<path d="M19.027 28.5342V28.1122C18.9379 28.1262 18.8535 28.145 18.7644 28.1544C18.8535 28.2763 18.9379 28.4076 19.027 28.5295V28.5342Z" fill="#EF5324"/>
<path d="M3.27273 16.2559L2.81323 16.7154C7.02839 17.8454 11.0138 20.0585 14.324 23.3687L16.6075 25.6521C17.3905 26.4351 18.1078 27.2744 18.7643 28.1559C18.8534 28.1418 18.9378 28.1278 19.0268 28.1137V16.7342C13.8224 17.7891 8.42094 17.625 3.27273 16.2559Z" fill="#EFB81C"/>
<path d="M19.0268 16.7335V0.59494C18.9752 0.613695 18.9237 0.63245 18.8721 0.651205L3.27271 16.2553C8.42092 17.6291 13.8223 17.7885 19.0268 16.7335Z" fill="#EF5324"/>
<path d="M16.6121 25.6515L14.3287 23.368C11.0185 20.0578 7.03308 17.8447 2.81792 16.7148L0 19.528L8.75385 28.2818C10.3668 27.7848 12.05 27.5973 13.7192 27.7239C13.8458 29.3931 13.6583 31.0763 13.1612 32.6892L19.0268 38.5548V28.5303C18.9378 28.4037 18.858 28.2771 18.7643 28.1552C18.1078 27.2738 17.3905 26.4345 16.6075 25.6515H16.6121Z" fill="#163749"/>
<path d="M13.7238 27.7283L10.9622 30.49L13.1659 32.6937C13.6629 31.0807 13.8504 29.3975 13.7238 27.7283Z" fill="#EF5324"/>
<path d="M13.7239 27.728C12.0547 27.6014 10.3715 27.789 8.75854 28.286L10.9622 30.4897L13.7239 27.728Z" fill="#EFB81C"/>
</svg>
