<svg width="25" height="25" viewBox="0 0 25 25" fill="none" xmlns="http://www.w3.org/2000/svg">
<g clip-path="url(#clip0_1_128)">
<path d="M5.81553 8.0332H0.795515C0.688649 8.0332 0.586161 8.07574 0.510595 8.15146C0.43503 8.22717 0.392578 8.32987 0.392578 8.43695V24.595C0.392578 24.7021 0.43503 24.8048 0.510595 24.8805C0.586161 24.9562 0.688649 24.9988 0.795515 24.9988H5.81468C5.92154 24.9988 6.02403 24.9562 6.0996 24.8805C6.17516 24.8048 6.21761 24.7021 6.21761 24.595V8.43695C6.21761 8.33002 6.17528 8.22745 6.0999 8.15176C6.02452 8.07607 5.92225 8.03343 5.81553 8.0332Z" fill="white"/>
<path d="M3.30818 1.10816e-07C2.65375 0.000169638 2.01407 0.194771 1.47001 0.559199C0.925958 0.923627 0.501964 1.44151 0.251642 2.04738C0.00131945 2.65324 -0.0640885 3.31988 0.0636881 3.96299C0.191465 4.6061 0.506687 5.19681 0.969499 5.66042C1.43231 6.12403 2.02193 6.43973 2.66379 6.56759C3.30566 6.69545 3.97095 6.62974 4.57555 6.37877C5.18015 6.12779 5.6969 5.70282 6.06046 5.15759C6.42403 4.61236 6.61808 3.97135 6.61808 3.31562C6.61808 2.88013 6.53246 2.44891 6.36611 2.04659C6.19976 1.64426 5.95594 1.27871 5.64858 0.970819C5.34122 0.662924 4.97633 0.418715 4.57476 0.25214C4.17319 0.0855654 3.7428 -0.000112476 3.30818 1.10816e-07Z" fill="white"/>
<path d="M18.5835 7.63109C17.7598 7.61442 16.9419 7.77088 16.1823 8.09038C15.4227 8.40988 14.7384 8.88532 14.1734 9.48605V8.43685C14.1734 8.32977 14.131 8.22709 14.0554 8.15137C13.9798 8.07566 13.8773 8.03312 13.7705 8.03312H8.96348C8.85661 8.03312 8.75412 8.07566 8.67855 8.15137C8.60299 8.22709 8.56055 8.32977 8.56055 8.43685V24.5966C8.56055 24.7037 8.60299 24.8064 8.67855 24.8821C8.75412 24.9578 8.85661 25.0004 8.96348 25.0004H13.9724C14.0792 25.0004 14.1817 24.9578 14.2573 24.8821C14.3329 24.8064 14.3753 24.7037 14.3753 24.5966V16.6025C14.3753 13.9083 15.1059 12.8591 16.9794 12.8591C19.0206 12.8591 19.1832 14.5418 19.1832 16.7413V24.5966C19.1832 24.7037 19.2256 24.8064 19.3012 24.8821C19.3768 24.9578 19.4792 25.0004 19.5861 25.0004H24.5967C24.7036 25.0004 24.8061 24.9578 24.8816 24.8821C24.9572 24.8064 24.9996 24.7037 24.9996 24.5966V15.7333C24.9996 11.7259 24.2374 7.63109 18.5835 7.63109Z" fill="white"/>
</g>
 
</svg>
