<svg width="21" height="42" viewBox="0 0 21 42" fill="none" xmlns="http://www.w3.org/2000/svg">
<path d="M0.0268555 13.0172V14.4674C2.75497 19.0717 4.32187 24.4367 4.32187 30.1769V34.0561C4.32187 35.0551 4.26102 36.049 4.15453 37.0378L13.1756 28.0167C7.65849 24.173 3.13022 19.0261 0.0268555 13.0172Z" fill="#EFB81C"/>
<path d="M13.1756 28.0114L20.6044 20.5826L0.0268555 0V13.0169C3.13022 19.0258 7.65849 24.1728 13.1756 28.0114Z" fill="#EF5324"/>
<path d="M4.32187 30.1714C4.32187 24.4362 2.75497 19.0662 0.0268555 14.4619V33.2646C0.0522097 33.295 0.0826348 33.3255 0.11306 33.3559C0.0877057 33.3863 0.0572806 33.4167 0.0268555 33.4472V41.1498L4.15453 37.0221C4.26609 36.0384 4.32187 35.0394 4.32187 34.0404V30.1612V30.1714Z" fill="#163749"/>
<path d="M0.0268555 33.3609V33.4522C0.0522097 33.4218 0.0826348 33.3913 0.11306 33.3609H0.0268555Z" fill="#EF5324"/>
<path d="M0.0268555 33.2693V33.3606H0.11306C0.0877057 33.3302 0.0572806 33.2998 0.0268555 33.2693Z" fill="#EFB81C"/>
</svg>
